<svg width="100" height="100" viewBox="0 0 100 100" fill="none" xmlns="http://www.w3.org/2000/svg">
<path d="M22.7216 84L20.8466 69.4545H25.25L25.7614 78.4034H25.875L29.7102 69.4545H33.1761L34.0568 78.4318H34.1705L37.6364 69.4545H42.0398L35.3352 84H31.5568L30.4489 75.875H30.3352L26.5 84H22.7216ZM40.9034 84L43.3182 69.4545H49.5966C50.6761 69.4545 51.5852 69.6676 52.3239 70.0938C53.0625 70.5199 53.5928 71.1188 53.9148 71.8906C54.2367 72.6624 54.3125 73.5644 54.142 74.5966C53.9716 75.6477 53.5928 76.5545 53.0057 77.3168C52.4233 78.0743 51.6799 78.6591 50.7756 79.071C49.8759 79.4782 48.8674 79.6818 47.75 79.6818H44L44.5114 76.6136H47.4659C47.9394 76.6136 48.3561 76.5331 48.7159 76.3722C49.0758 76.2064 49.367 75.9744 49.5895 75.6761C49.812 75.3731 49.9564 75.0133 50.0227 74.5966C50.089 74.1799 50.0582 73.8248 49.9304 73.5312C49.8073 73.233 49.5942 73.0057 49.2912 72.8494C48.9929 72.6884 48.6117 72.608 48.1477 72.608H46.7557L44.8523 84H40.9034ZM63.517 74C63.5597 73.5312 63.446 73.1643 63.1761 72.8991C62.9063 72.6293 62.4517 72.4943 61.8125 72.4943C61.4053 72.4943 61.0644 72.5417 60.7898 72.6364C60.5199 72.7311 60.3092 72.8613 60.1577 73.027C60.0109 73.1927 59.9186 73.3845 59.8807 73.6023C59.8381 73.7727 59.8404 73.929 59.8878 74.071C59.9399 74.2083 60.0369 74.3338 60.179 74.4474C60.3258 74.5611 60.5175 74.6629 60.7543 74.7528C60.9957 74.8428 61.2822 74.9233 61.6136 74.9943L62.75 75.25C63.5265 75.4205 64.1776 75.6454 64.7031 75.9247C65.2334 76.1993 65.6501 76.526 65.9531 76.9048C66.2562 77.2836 66.455 77.7074 66.5497 78.1761C66.6491 78.6449 66.6515 79.1562 66.5568 79.7102C66.3958 80.6667 66.0241 81.4763 65.4418 82.1392C64.8594 82.8021 64.0994 83.3063 63.1619 83.652C62.2244 83.9976 61.1402 84.1705 59.9091 84.1705C58.6496 84.1705 57.5795 83.9834 56.6989 83.6094C55.8229 83.2306 55.1884 82.6529 54.7955 81.8764C54.4072 81.0952 54.3125 80.0985 54.5114 78.8864H58.2614C58.2045 79.3314 58.2519 79.7055 58.4034 80.0085C58.5549 80.3116 58.7988 80.5412 59.1349 80.6974C59.4711 80.8537 59.8902 80.9318 60.392 80.9318C60.8182 80.9318 61.1828 80.8797 61.4858 80.7756C61.7888 80.6714 62.0279 80.527 62.2031 80.3423C62.3783 80.1577 62.4848 79.947 62.5227 79.7102C62.5606 79.4924 62.5227 79.2983 62.4091 79.1278C62.2955 78.9574 62.0895 78.8035 61.7912 78.6662C61.4929 78.5289 61.0833 78.4034 60.5625 78.2898L59.1705 77.9773C57.9347 77.6932 57.0019 77.2244 56.3722 76.571C55.7424 75.9176 55.5199 75.0227 55.7045 73.8864C55.8561 72.9583 56.2372 72.1487 56.848 71.4574C57.4635 70.7614 58.2448 70.2216 59.1918 69.8381C60.1435 69.4498 61.197 69.2557 62.3523 69.2557C63.5265 69.2557 64.509 69.4522 65.2997 69.8452C66.0952 70.2382 66.6657 70.7898 67.0114 71.5C67.3617 72.2102 67.4564 73.0436 67.2955 74H63.517ZM76.8374 74C76.88 73.5312 76.7663 73.1643 76.4964 72.8991C76.2266 72.6293 75.772 72.4943 75.1328 72.4943C74.7256 72.4943 74.3847 72.5417 74.1101 72.6364C73.8402 72.7311 73.6295 72.8613 73.478 73.027C73.3312 73.1927 73.2389 73.3845 73.201 73.6023C73.1584 73.7727 73.1607 73.929 73.2081 74.071C73.2602 74.2083 73.3572 74.3338 73.4993 74.4474C73.6461 74.5611 73.8378 74.6629 74.0746 74.7528C74.3161 74.8428 74.6025 74.9233 74.9339 74.9943L76.0703 75.25C76.8468 75.4205 77.4979 75.6454 78.0234 75.9247C78.5537 76.1993 78.9704 76.526 79.2734 76.9048C79.5765 77.2836 79.7753 77.7074 79.87 78.1761C79.9695 78.6449 79.9718 79.1562 79.8771 79.7102C79.7161 80.6667 79.3445 81.4763 78.7621 82.1392C78.1797 82.8021 77.4197 83.3063 76.4822 83.652C75.5447 83.9976 74.4605 84.1705 73.2294 84.1705C71.9699 84.1705 70.8999 83.9834 70.0192 83.6094C69.1432 83.2306 68.5088 82.6529 68.1158 81.8764C67.7275 81.0952 67.6328 80.0985 67.8317 78.8864H71.5817C71.5249 79.3314 71.5722 79.7055 71.7237 80.0085C71.8752 80.3116 72.1191 80.5412 72.4553 80.6974C72.7914 80.8537 73.2105 80.9318 73.7124 80.9318C74.1385 80.9318 74.5031 80.8797 74.8061 80.7756C75.1091 80.6714 75.3482 80.527 75.5234 80.3423C75.6986 80.1577 75.8052 79.947 75.843 79.7102C75.8809 79.4924 75.843 79.2983 75.7294 79.1278C75.6158 78.9574 75.4098 78.8035 75.1115 78.6662C74.8132 78.5289 74.4036 78.4034 73.8828 78.2898L72.4908 77.9773C71.255 77.6932 70.3222 77.2244 69.6925 76.571C69.0627 75.9176 68.8402 75.0227 69.0249 73.8864C69.1764 72.9583 69.5575 72.1487 70.1683 71.4574C70.7839 70.7614 71.5651 70.2216 72.5121 69.8381C73.4638 69.4498 74.5173 69.2557 75.6726 69.2557C76.8468 69.2557 77.8293 69.4522 78.62 69.8452C79.4155 70.2382 79.986 70.7898 80.3317 71.5C80.6821 72.2102 80.7768 73.0436 80.6158 74H76.8374Z" fill="url(#paint0_linear_29_4)"/>
<mask id="mask0_29_4" style="mask-type:alpha" maskUnits="userSpaceOnUse" x="21" y="14" width="59" height="51">
<path d="M50.5 14C60.8679 14 69.2727 22.4123 69.2727 32.7895C69.2727 33.0942 69.2655 33.3972 69.2513 33.6983C75.512 35.9032 80 41.8745 80 48.8947C80 57.7894 72.7958 65 63.9091 65H37.0909C28.2041 65 21 57.7894 21 48.8947C21 41.8745 25.4879 35.9032 31.7488 33.6983C31.7345 33.3972 31.7273 33.0942 31.7273 32.7895C31.7273 22.4123 40.1321 14 50.5 14ZM50.5 19.3684C43.0944 19.3684 37.0909 25.3772 37.0909 32.7895C37.0909 33.0082 37.0961 33.226 37.1064 33.4429L37.2964 37.4356L33.529 38.7624C29.2718 40.2615 26.3636 44.3018 26.3636 48.8947C26.3636 54.8244 31.1664 59.6316 37.0909 59.6316H63.9091C69.8335 59.6316 74.6364 54.8244 74.6364 48.8947C74.6364 42.9626 69.8359 38.1579 63.9091 38.1579C59.1703 38.1579 55.1495 41.2332 53.7294 45.4984L48.6399 43.8004C50.7695 37.4023 56.8023 32.7895 63.9091 32.7895C63.9091 25.3772 57.9056 19.3684 50.5 19.3684Z" fill="black"/>
</mask>
<g mask="url(#mask0_29_4)">
<rect x="21" y="50" width="59" height="20" fill="#FF9800"/>
<rect x="21" y="30" width="59" height="20" fill="#FFC107"/>
<rect x="21" y="10" width="59" height="20" fill="#FFD65C"/>
</g>
<defs>
<linearGradient id="paint0_linear_29_4" x1="19" y1="77" x2="81" y2="77" gradientUnits="userSpaceOnUse">
<stop offset="0.711538" stop-color="#FF9800"/>
<stop offset="1" stop-color="#FFC107"/>
</linearGradient>
</defs>
</svg>
